HIERARCHY
ROOT SpineBase
{
  OFFSET 0.000000 0.000000 0.000000
  CHANNELS 6 Xposition Yposition Zposition Zrotation Xrotation Yrotation
  JOINT SpineMid
  {
    OFFSET -0.000000 35.831512 0.000000
    CHANNELS 3 Zrotation Xrotation Yrotation
    JOINT SpineShoulder
    {
      OFFSET 0.114529 26.594613 -1.010680
      CHANNELS 3 Zrotation Xrotation Yrotation
      JOINT Neck
      {
        OFFSET 0.077982 8.788769 -0.735112
        CHANNELS 3 Zrotation Xrotation Yrotation
        JOINT Head
        {
          OFFSET -0.325943 12.781553 6.380532
          CHANNELS 3 Zrotation Xrotation Yrotation
          End Site
          {
            OFFSET 0 0 0
          }
        }
      }
      JOINT ShoulderLeft
      {
        OFFSET -14.051096 -7.699506 -6.438186
        CHANNELS 3 Zrotation Xrotation Yrotation
        JOINT ElbowLeft
        {
          OFFSET -8.226908 -23.575818 3.489020
          CHANNELS 3 Zrotation Xrotation Yrotation
          JOINT WristLeft
          {
            OFFSET -0.133581 -23.753814 4.156908
            CHANNELS 3 Zrotation Xrotation Yrotation
            JOINT HandLeft
            {
              OFFSET 1.596129 -11.113621 -0.491127
              CHANNELS 3 Zrotation Xrotation Yrotation
              JOINT HandTipLeft
              {
                OFFSET -0.550714 -5.725991 1.062032
                CHANNELS 3 Zrotation Xrotation Yrotation
                End Site
                {
                  OFFSET 0 0 0
                }
              }
              JOINT ThumbLeft
              {
                OFFSET 1.105992 2.478960 -3.971556
                CHANNELS 3 Zrotation Xrotation Yrotation
                End Site
                {
                  OFFSET 0 0 0
                }
              }
            }
          }
        }
      }
      JOINT ShoulderRight
      {
        OFFSET 15.018970 -8.154342 -7.989122
        CHANNELS 3 Zrotation Xrotation Yrotation
        JOINT ElbowRight
        {
          OFFSET 5.362569 -29.137413 2.054504
          CHANNELS 3 Zrotation Xrotation Yrotation
          JOINT WristRight
          {
            OFFSET 2.824737 -21.995279 8.674447
            CHANNELS 3 Zrotation Xrotation Yrotation
            JOINT HandRight
            {
              OFFSET -0.775233 -4.363188 0.645021
              CHANNELS 3 Zrotation Xrotation Yrotation
              JOINT HandTipRight
              {
                OFFSET 1.503795 -8.796319 2.559296
                CHANNELS 3 Zrotation Xrotation Yrotation
                End Site
                {
                  OFFSET 0 0 0
                }
              }
              JOINT ThumbRight
              {
                OFFSET 2.437764 6.102783 -2.084609
                CHANNELS 3 Zrotation Xrotation Yrotation
                End Site
                {
                  OFFSET 0 0 0
                }
              }
            }
          }
        }
      }
    }
  }
  JOINT HipLeft
  {
    OFFSET -5.728022 1.620470 -3.300626
    CHANNELS 3 Zrotation Xrotation Yrotation
    JOINT KneeLeft
    {
      OFFSET -6.858180 -40.499637 2.086625
      CHANNELS 3 Zrotation Xrotation Yrotation
      JOINT AnkleLeft
      {
        OFFSET -1.435992 -32.506849 -3.239943
        CHANNELS 3 Zrotation Xrotation Yrotation
        JOINT FootLeft
        {
          OFFSET 0.093338 -2.910847 -13.859184
          CHANNELS 3 Zrotation Xrotation Yrotation
          End Site
          {
            OFFSET 0 0 0
          }
        }
      }
    }
  }
  JOINT HipRight
  {
    OFFSET 6.452438 1.752862 -4.229253
    CHANNELS 3 Zrotation Xrotation Yrotation
    JOINT KneeRight
    {
      OFFSET 0.188771 -37.782045 0.648056
      CHANNELS 3 Zrotation Xrotation Yrotation
      JOINT AnkleRight
      {
        OFFSET 1.154975 -34.055993 -5.433126
        CHANNELS 3 Zrotation Xrotation Yrotation
        JOINT FootRight
        {
          OFFSET -0.199085 -2.876200 -13.864808
          CHANNELS 3 Zrotation Xrotation Yrotation
          End Site
          {
            OFFSET 0 0 0
          }
        }
      }
    }
  }
}
MOTION
Frames: 9
Frame Time: 0.033333
-22.729536 78.697902 236.283198 0.302774 -0.093688 7.648027 -0.287612 0.133149 -7.647445 -0.000000 0.000000 0.000000 0.345519 -1.841441 -0.215606 0.000000 0.000000 0.000000 4.725555 5.442845 -1.456899 -6.388522 -6.463481 0.515602 1.488092 3.720894 0.722121 -2.915506 -15.127120 -0.289988 0.000000 0.000000 0.000000 0.000000 0.000000 0.000000 -0.000000 0.000000 0.000000 -0.000000 0.000000 0.000000 -6.155291 4.396648 -1.450178 5.600777 -9.714578 0.664233 0.000000 0.000000 0.000000 0.000000 0.000000 0.000000 -0.475429 -1.262891 -7.410920 0.006200 1.408601 -0.238453 -0.569690 -0.122565 2.721686 0.000000 0.000000 0.000000 1.177837 -1.732142 -7.606097 -2.922921 -0.291291 0.147774 0.665363 1.811088 2.600248 0.000000 0.000000 0.000000
-22.775190 78.632415 236.126667 0.219285 -0.165363 8.341392 -0.192977 0.195425 -8.340747 -0.000000 0.000000 0.000000 -0.037304 -2.043480 -0.034467 0.000000 0.000000 0.000000 7.340070 8.286425 -2.421121 -8.947638 -9.479854 0.743232 -1.745895 5.904819 1.404183 -1.991181 -25.045465 -1.165682 0.000000 0.000000 0.000000 0.000000 0.000000 0.000000 -0.000000 0.000000 0.000000 -0.000000 0.000000 0.000000 -6.106333 6.943336 -1.766906 6.054161 -11.976024 1.422129 0.000000 0.000000 0.000000 0.000000 0.000000 0.000000 -0.414173 -1.294612 -8.088080 0.009381 1.506334 -0.254912 -0.684343 -0.169860 3.274737 0.000000 0.000000 0.000000 0.759806 -2.046258 -8.314008 -1.909989 0.104049 0.059570 -0.031719 1.796772 3.267021 0.000000 0.000000 0.000000
-22.796418 78.582674 235.987418 0.116854 -0.219582 8.699435 -0.082298 0.234729 -8.699043 -0.000000 0.000000 0.000000 -0.471157 -2.267033 0.169755 0.000000 0.000000 0.000000 9.849856 10.888223 -3.441785 -11.286703 -12.277666 0.851777 -6.428253 5.110756 1.738034 2.351450 -27.327883 -1.065761 0.000000 0.000000 0.000000 0.000000 0.000000 0.000000 -0.306732 0.795986 0.127126 0.304995 -0.796653 -0.122875 -2.725267 9.389426 -1.865732 4.066183 -16.382658 1.553898 0.000000 0.000000 0.000000 0.000000 0.000000 0.000000 -0.297184 -1.295833 -8.438502 -0.012026 1.545524 -0.262368 -0.737413 -0.194705 3.531729 0.000000 0.000000 0.000000 0.313501 -2.261975 -8.690887 -0.820596 0.386833 -0.044154 -0.678901 1.817281 3.638398 0.000000 0.000000 0.000000
-22.812665 78.547244 235.837326 -0.030710 -0.215830 8.892733 0.063705 0.208488 -8.892907 -0.000000 0.000000 0.000000 -0.821890 -2.572765 0.329976 0.000000 0.000000 0.000000 11.922587 12.986872 -4.373466 -13.128741 -14.568154 0.885058 -10.820547 4.686384 2.066656 7.169440 -27.546689 -0.822505 0.000000 0.000000 0.000000 0.000000 0.000000 0.000000 -0.667048 1.128857 0.167599 0.663873 -1.130728 -0.154476 -1.906555 9.562690 -1.842583 1.284928 -13.980025 0.921684 0.000000 0.000000 0.000000 0.000000 0.000000 0.000000 -0.216887 -1.501147 -8.603574 0.021725 1.732368 -0.292826 -0.733380 -0.185676 3.511409 0.000000 0.000000 0.000000 -0.010197 -2.507206 -8.901901 0.095397 0.586586 -0.139471 -1.173682 1.910818 3.715526 0.000000 0.000000 0.000000
-22.814883 78.516942 235.690060 -0.190701 -0.180547 8.945705 0.216457 0.148696 -8.946286 -0.000000 0.000000 0.000000 -1.159631 -2.810948 0.484817 0.000000 0.000000 0.000000 13.187384 14.310024 -5.014597 -14.257248 -16.025639 0.877282 -13.878272 6.122672 2.785016 12.006924 -27.095174 -0.266390 0.000000 0.000000 0.000000 0.000000 0.000000 0.000000 -0.994893 1.325308 0.185729 0.304553 -0.087378 -0.284756 -3.464421 9.992246 -2.194191 2.653744 -14.351367 1.479249 0.000000 0.000000 0.000000 0.000000 0.000000 0.000000 -0.212241 -1.849457 -8.613247 0.124754 2.039799 -0.341623 -0.713164 -0.162245 3.412045 0.000000 0.000000 0.000000 -0.213273 -2.730066 -8.970105 0.772978 0.667077 -0.213953 -1.512472 2.067738 3.690683 0.000000 0.000000 0.000000
-22.816852 78.467004 235.537528 -0.462411 -0.031667 8.298163 0.462140 -0.035403 -8.298148 -0.821225 0.099030 -0.068860 -0.309124 -3.338642 0.526590 0.000000 0.000000 0.000000 14.101611 14.932479 -5.277132 -14.303344 -17.022850 1.004953 -14.378110 10.661399 4.169973 11.234648 -33.786860 -0.933221 0.000000 0.000000 0.000000 0.000000 0.000000 0.000000 -0.490543 1.668580 0.322159 -0.189755 1.325440 -0.418072 -8.451704 10.113118 -2.988304 7.837815 -14.411974 3.139374 0.000000 0.000000 0.000000 0.000000 0.000000 0.000000 -0.174855 -2.517039 -7.895511 0.290465 2.545526 -0.423281 -0.663633 -0.042632 3.163514 0.000000 0.000000 0.000000 -0.031354 -2.936173 -8.326829 0.914789 0.447142 -0.231209 -1.517962 2.437830 3.464443 0.000000 0.000000 0.000000
-22.797517 78.485098 235.376384 -0.518038 -0.080711 8.919158 0.524288 -0.000584 -8.919520 -0.000000 0.000000 0.000000 -1.709675 -3.423273 0.726214 0.000000 0.000000 0.000000 11.444623 13.334498 -4.552861 -12.745646 -15.118756 1.032832 -14.376440 10.417850 4.135805 11.718767 -34.528073 -0.660994 0.000000 0.000000 0.000000 0.000000 0.000000 0.000000 -1.138211 1.434391 0.198533 -0.117332 2.468149 -0.155416 -20.793831 12.456287 -4.467741 20.597191 -13.658046 7.450376 0.000000 0.000000 0.000000 0.000000 0.000000 0.000000 -0.391533 -2.841433 -8.467675 0.837875 3.769100 -0.578163 -1.272524 1.079126 4.226952 0.000000 0.000000 0.000000 -0.140959 -3.130049 -8.956596 1.163914 0.461722 -0.269627 -1.752429 2.598724 3.933700 0.000000 0.000000 0.000000
-22.702213 78.557304 235.240065 -0.552373 -0.064149 11.163130 0.554342 -0.044007 -11.163226 -0.000000 0.000000 0.000000 -2.427505 -3.800696 1.052447 0.000000 0.000000 0.000000 10.200315 13.235923 -4.529002 -11.664376 -14.986010 1.257625 -13.372004 11.849026 4.449161 12.364053 -34.885501 -0.007197 0.000000 0.000000 0.000000 0.000000 0.000000 0.000000 -0.725469 0.538696 0.051478 0.390400 3.404015 0.342485 -38.534671 14.822556 -5.638420 38.257979 -11.537984 12.194721 0.000000 0.000000 0.000000 0.000000 0.000000 0.000000 -0.847100 -2.952321 -10.713653 1.295823 4.115423 -0.626761 -1.327470 -1.769801 4.374037 0.000000 0.000000 0.000000 -0.788111 -3.551115 -11.234757 2.055604 0.743144 -0.374407 -2.360143 2.728903 4.905412 0.000000 0.000000 0.000000
-22.743233 78.473672 235.118847 -0.121654 -0.708669 12.579519 0.032904 -0.769055 -12.572861 -0.043735 -0.111955 0.008100 -3.158921 -2.927962 1.421841 0.000000 0.000000 0.000000 4.156169 11.130768 -3.290910 -7.244233 -8.916571 1.302817 -8.148148 11.263444 4.019666 8.566992 -34.207066 -0.368028 0.000000 0.000000 0.000000 0.000000 0.000000 0.000000 -0.033824 1.564063 -0.016265 1.268685 3.170402 0.880856 -51.530831 13.190324 -6.627169 49.215501 -5.298766 12.707177 0.000000 0.000000 0.000000 0.000000 0.000000 0.000000 -1.358279 -2.551302 -12.064240 1.420062 4.835761 -0.716117 -1.439717 -4.964337 5.322335 0.000000 0.000000 0.000000 -2.235766 -3.194210 -12.686356 4.340267 1.490375 -0.683873 -3.950538 2.169048 6.584213 0.000000 0.000000 0.000000
